# This file uses centimeters as units for non-parametric coordinates.

mtllib Hotel_2_Roof_Fancy.mtl
g default
v -928.667725 1497.898071 500.000000
v -928.667725 1497.898071 -148.635147
v -577.302856 1497.898071 -500.000000
v -711.764343 1497.898071 -473.253998
v -825.755310 1497.898071 -397.087677
v -901.921692 1497.898071 -283.096710
v -237.244843 1584.369751 -503.255341
v -237.244858 1497.898071 -500.000000
v -424.662903 1497.898071 -500.000000
v -424.662903 1497.898071 -558.767456
v -237.244858 1497.898071 -558.767456
v -237.244843 1584.369751 -558.880371
v -424.662903 1584.369751 -558.767456
v -928.667725 1584.369751 500.000000
v -928.667725 1584.369751 -148.635147
v -901.921692 1584.369751 -283.096710
v -825.755310 1584.369751 -397.087677
v -711.764343 1584.369751 -473.253998
v -577.302856 1584.369751 -500.000000
v -424.653503 1584.469727 -500.334320
v -90.000000 1584.369751 500.000000
v -90.000000 1497.898071 500.000000
v -90.000000 1584.369751 -503.255341
v -90.000000 1497.898071 -500.000000
v 748.667725 1497.898071 500.000000
v 748.667725 1497.898071 -148.635147
v 397.302856 1497.898071 -500.000000
v 531.764343 1497.898071 -473.253998
v 645.755310 1497.898071 -397.087677
v 721.921692 1497.898071 -283.096710
v 57.244858 1584.369751 -503.255341
v 57.244854 1497.898071 -500.000000
v 244.662888 1497.898071 -500.000000
v 244.662888 1497.898071 -558.767456
v 57.244854 1497.898071 -558.767456
v 57.244862 1584.369751 -558.880371
v 244.662888 1584.369751 -558.767456
v 748.667725 1584.369751 500.000000
v 748.667725 1584.369751 -148.635147
v 721.921692 1584.369751 -283.096710
v 645.755310 1584.369751 -397.087677
v 531.764343 1584.369751 -473.253998
v 397.302856 1584.369751 -500.000000
v 244.653473 1584.469727 -500.334320
v -90.000000 1584.369751 -558.936890
v -424.644104 1727.899536 -500.668640
v -424.662903 1727.896606 -558.777222
v -237.244858 1727.896606 -558.899902
v 244.644073 1727.899536 -500.668640
v 244.662888 1727.896606 -558.777222
v 57.244873 1727.896606 -558.899902
v -89.999992 1731.334961 -558.899902
v -237.244858 1877.701050 -558.891235
v -89.999992 1877.701050 -558.891235
v 57.244873 1877.701050 -558.891235
v -237.235458 1727.897949 -501.460022
v 57.235474 1727.897949 -501.460022
v -237.244858 1877.697632 -501.451263
v -89.999992 1877.697632 -501.451263
v 57.244873 1877.697632 -501.451263
v -89.999992 1727.898071 -501.460114
v -237.235458 1584.568115 -501.460022
v 57.235474 1584.568115 -501.460022
v -89.999992 1584.568237 -501.460114
vt 0.017083 0.689684
vt 0.017083 0.648549
vt 0.550774 0.644512
vt 0.550774 0.595559
vt 0.115408 0.595559
vt 0.115408 0.644512
vt 0.407817 0.648833
vt 0.407817 0.689399
vt 0.346326 0.855997
vt 0.346326 0.815060
vt 0.295616 0.815060
vt 0.295616 0.855997
vt 0.025156 0.595559
vt 0.025156 0.644512
vt 0.189176 0.993840
vt 0.189176 0.945877
vt 0.320008 0.945877
vt 0.320008 0.993840
vt 0.721662 0.992219
vt 0.721662 0.946748
vt 0.252627 0.815060
vt 0.252627 0.855997
vt 0.597432 0.946748
vt 0.597432 0.992219
vt 0.223902 0.815060
vt 0.223902 0.855997
vt 0.043744 0.996150
vt 0.074386 0.996150
vt 0.074386 0.943244
vt 0.043744 0.943244
vt 0.550775 0.644512
vt 0.115408 0.644512
vt 0.115408 0.595559
vt 0.550775 0.595560
vt 0.403895 0.856045
vt 0.403891 0.815060
vt 0.342335 0.942473
vt 0.342335 0.992660
vt 0.402209 0.992660
vt 0.402209 0.942473
vt 0.025156 0.595559
vt 0.025156 0.644512
vt 0.188159 0.993840
vt 0.320008 0.993840
vt 0.320008 0.945877
vt 0.188159 0.945877
vt 0.721783 0.992219
vt 0.596915 0.992219
vt 0.596915 0.946748
vt 0.721665 0.946748
vt 0.798552 0.689684
vt 0.798553 0.648549
vt 0.721662 0.992219
vt 0.847700 0.992219
vt 0.847700 0.946748
vt 0.721662 0.946748
vt 0.597432 0.992219
vt 0.597432 0.946748
vt 0.188228 0.945877
vt 0.320008 0.945877
vt 0.847700 0.992219
vt 0.847700 0.946748
vt 0.847700 0.946748
vt 0.847700 0.992219
vt 0.713879 0.855997
vt 0.764589 0.855997
vt 0.764589 0.815060
vt 0.713879 0.815060
vt 0.320008 0.945877
vt 0.188228 0.945877
vt 0.188228 0.993840
vt 0.320008 0.993840
vt 0.807578 0.855997
vt 0.807578 0.815060
vt 0.836303 0.855997
vt 0.836303 0.815060
vt 0.043744 0.807207
vt 0.043744 0.860114
vt 0.074386 0.860114
vt 0.074386 0.807207
vt 0.656314 0.815060
vt 0.656311 0.856045
vt 0.464338 0.942473
vt 0.464338 0.992660
vt 0.125246 0.996150
vt 0.125246 0.943244
vt 0.320008 0.993840
vt 0.188228 0.993840
vt 0.188228 0.945877
vt 0.320008 0.945877
vt 0.320008 0.993840
vt 0.188228 0.993840
vt 0.721367 0.946748
vt 0.847700 0.946748
vt 0.341899 0.942519
vt 0.464338 0.942526
vt 0.464338 0.993225
vt 0.341901 0.993217
vt 0.847700 0.992219
vt 0.721182 0.992219
vt 0.597317 0.946748
vt 0.597132 0.992219
vt 0.303625 0.564388
vt 0.979224 0.442954
vt 0.934384 0.506674
vt 0.867274 0.549250
vt 0.788113 0.564201
vt 0.698251 0.564388
vt 0.587913 0.565017
vt 0.412836 0.565017
vt 0.125246 0.860114
vt 0.125246 0.807207
vt 0.125465 0.901679
vt 0.074386 0.901679
vt 0.178331 0.943244
vt 0.178331 0.901679
vt 0.178331 0.860114
vt 0.530103 0.994863
vt 0.474572 0.994863
vt 0.474576 0.923946
vt 0.530103 0.924237
vt 0.585633 0.994863
vt 0.585630 0.923946
vt 0.403898 0.923946
vt 0.474576 0.856091
vt 0.656307 0.923946
vt 0.585630 0.856091
vt 0.530103 0.856091
vt 0.007482 0.005210
vt 0.007482 0.367791
vt 0.023228 0.442954
vt 0.068069 0.506674
vt 0.135179 0.549250
vt 0.214339 0.564201
vt 0.498632 0.005210
vt 0.994970 0.005210
vt 0.994970 0.367791
vt 0.498632 0.565017
vn 0.000000 0.000000 1.000000
vn 0.000000 0.000000 1.000000
vn 0.000000 0.000000 1.000000
vn 0.000000 0.000000 1.000000
vn -1.000000 0.000000 0.000000
vn -1.000000 0.000000 0.000000
vn -0.999417 0.000000 -0.034134
vn -0.999417 0.000000 -0.034134
vn -0.093282 -0.001023 -0.995639
vn -0.093302 -0.001023 -0.995637
vn -0.382683 0.000000 -0.923880
vn -0.382683 0.000000 -0.923880
vn -0.707106 0.000000 -0.707107
vn -0.707106 0.000000 -0.707107
vn -0.923880 0.000000 -0.382683
vn -0.923880 0.000000 -0.382683
vn -0.000301 -0.000653 -1.000000
vn -0.000505 -0.000309 -1.000000
vn -0.000505 -0.000309 -1.000000
vn -0.000301 -0.000653 -1.000000
vn -0.001095 -0.001932 -0.999998
vn -0.001095 -0.001932 -0.999998
vn 1.000000 0.000000 0.000000
vn 1.000000 0.000000 0.000000
vn 1.000000 0.000000 0.000000
vn 1.000000 0.000000 0.000000
vn -1.000000 0.000041 0.000181
vn -1.000000 0.000041 0.000181
vn -1.000000 0.000054 0.000080
vn -1.000000 0.000054 0.000080
vn 0.000000 -0.037620 -0.999292
vn 0.000000 -0.037620 -0.999292
vn 0.000000 -0.037620 -0.999292
vn 0.000000 -0.037620 -0.999292
vn 0.000000 0.000000 1.000000
vn 0.000000 0.000000 1.000000
vn 0.000000 0.000000 1.000000
vn 0.000000 0.000000 1.000000
vn 1.000000 0.000000 0.000000
vn 0.999417 0.000000 -0.034134
vn 0.999417 0.000000 -0.034134
vn 1.000000 0.000000 0.000000
vn 0.093282 -0.001023 -0.995639
vn 0.382683 0.000000 -0.923880
vn 0.382683 0.000000 -0.923880
vn 0.093302 -0.001023 -0.995637
vn 0.707106 0.000000 -0.707107
vn 0.707106 0.000000 -0.707107
vn 0.923880 0.000000 -0.382683
vn 0.923880 0.000000 -0.382683
vn 0.000301 -0.000653 -1.000000
vn 0.000301 -0.000653 -1.000000
vn 0.000505 -0.000309 -1.000000
vn 0.000505 -0.000309 -1.000000
vn 0.001095 -0.001932 -0.999998
vn 0.001095 -0.001932 -0.999998
vn -1.000000 0.000000 -0.000000
vn -1.000000 0.000000 -0.000000
vn -1.000000 0.000000 -0.000000
vn -1.000000 0.000000 -0.000000
vn 1.000000 0.000041 0.000181
vn 1.000000 0.000055 0.000080
vn 1.000000 0.000055 0.000080
vn 1.000000 0.000041 0.000181
vn 0.000000 -0.037620 -0.999292
vn 0.000000 -0.037620 -0.999292
vn 0.000000 -0.037620 -0.999292
vn 0.000000 -0.037620 -0.999292
vn 0.000000 -1.000000 0.000000
vn 0.000000 -1.000000 0.000000
vn 0.000000 -1.000000 0.000000
vn 0.000000 -1.000000 0.000000
vn 0.000000 -1.000000 0.000001
vn 0.000000 -1.000000 0.000001
vn -1.000000 0.000033 0.000242
vn -1.000000 0.000033 0.000242
vn -0.000628 -0.000102 -1.000000
vn -0.000628 -0.000102 -1.000000
vn 1.000000 0.000033 0.000242
vn 1.000000 0.000033 0.000242
vn 0.000628 -0.000102 -1.000000
vn 0.000628 -0.000102 -1.000000
vn -0.000193 0.000060 -1.000000
vn -0.000097 0.000059 -1.000000
vn -0.000000 0.000059 -1.000000
vn -0.000000 0.000060 -1.000000
vn 0.000097 0.000059 -1.000000
vn 0.000193 0.000060 -1.000000
vn -0.000001 0.000059 -1.000000
vn 0.000000 0.000059 -1.000000
vn 0.000001 0.000059 -1.000000
vn 0.000004 1.000000 -0.000035
vn 0.000004 1.000000 -0.000035
vn 0.000004 1.000000 -0.000035
vn 0.000004 1.000000 -0.000035
vn -0.000004 1.000000 -0.000035
vn -0.000004 1.000000 -0.000035
vn -0.000004 1.000000 -0.000035
vn -0.000004 1.000000 -0.000035
vn -1.000000 -0.000031 0.000082
vn -1.000000 -0.000031 0.000082
vn -1.000000 -0.000031 0.000082
vn -1.000000 -0.000031 0.000082
vn 0.000000 1.000000 0.000059
vn 0.000000 1.000000 0.000059
vn 0.000000 1.000000 0.000059
vn 0.000000 1.000000 0.000059
vn 1.000000 -0.000031 0.000082
vn 1.000000 -0.000031 0.000082
vn 1.000000 -0.000031 0.000082
vn 1.000000 -0.000031 0.000082
vn 0.000000 1.000000 0.000059
vn 0.000000 1.000000 0.000059
vn -0.000000 -0.000059 1.000000
vn 0.000001 -0.000059 1.000000
vn 0.000001 -0.000059 1.000000
vn -0.000000 -0.000059 1.000000
vn -0.000001 -0.000059 1.000000
vn -0.000001 -0.000059 1.000000
vn 0.005114 0.001166 0.999986
vn 0.005114 0.001166 0.999986
vn 0.005114 0.001166 0.999986
vn 0.005114 0.001166 0.999986
vn -0.005114 0.001166 0.999986
vn -0.005114 0.001166 0.999986
vn -0.005114 0.001166 0.999986
vn -0.005114 0.001166 0.999986
vn 0.000001 0.000000 1.000000
vn 0.000001 0.000000 1.000000
vn 0.000001 0.000000 1.000000
vn 0.000001 0.000000 1.000000
vn -0.000001 0.000000 1.000000
vn -0.000001 0.000000 1.000000
vn -0.000001 0.000000 1.000000
vn -0.000001 0.000000 1.000000
vn 0.000000 1.000000 0.000040
vn 0.000000 1.000000 0.000000
vn 0.000000 1.000000 0.000000
vn 0.000000 1.000000 0.000198
vn -0.000317 1.000000 0.000245
vn 0.000317 1.000000 0.000245
vn 0.000595 1.000000 0.000299
vn 0.000254 1.000000 0.000124
vn 0.000000 1.000000 0.000000
vn 0.000000 1.000000 0.000001
vn 0.000000 1.000000 0.000001
vn -0.000595 1.000000 0.000299
vn -0.000254 1.000000 0.000124
vn 0.000000 1.000000 0.000000
vn 0.000000 1.000000 0.000001
vn 0.000000 1.000000 0.000001
vn 0.000000 1.000000 0.000000
vn 0.000000 1.000000 0.000000
s off
g Roof_1
usemtl initialShadingGroup
f 14/1/1 1/2/2 22/7/3 21/8/4
s 1
f 1/3/5 14/4/6 15/5/7 2/6/8
f 19/9/9 3/10/10 4/11/11 18/12/12
f 18/12/12 4/11/11 5/21/13 17/22/14
f 17/22/14 5/21/13 6/25/15 16/26/16
f 16/13/16 6/14/15 2/6/8 15/5/7
s 3
f 10/27/17 13/28/18 12/29/19 11/30/20
s 1
f 3/10/10 19/9/9 20/35/21 9/36/22
s off
f 8/15/23 11/16/24 12/17/25 7/18/26
s 4
f 20/19/27 13/20/28 10/23/29 9/24/30
s off
f 8/37/31 7/38/32 23/39/33 24/40/34
f 38/51/35 21/8/36 22/7/37 25/52/38
s 5
f 25/31/39 26/32/40 39/33/41 38/34/42
f 43/65/43 42/66/44 28/67/45 27/68/46
f 42/66/44 41/73/47 29/74/48 28/67/45
f 41/73/47 40/75/49 30/76/50 29/74/48
f 40/41/49 39/33/41 26/32/40 30/42/50
s 7
f 34/77/51 35/78/52 36/79/53 37/80/54
s 5
f 27/68/46 33/81/55 44/82/56 43/65/43
s off
f 32/43/57 31/44/58 36/45/59 35/46/60
s 8
f 44/47/61 33/48/62 34/49/63 37/50/64
s off
f 32/83/65 24/40/66 23/39/67 31/84/68
s 9
f 23/53/69 7/54/70 12/55/71 45/56/72
f 31/57/73 23/53/69 45/56/72 36/58/74
s 4
f 13/20/28 20/19/27 46/61/75 47/62/76
s 3
f 12/29/19 13/28/18 47/85/77 48/86/78
s 8
f 44/47/61 37/50/64 50/63/79 49/64/80
s 7
f 37/80/54 36/79/53 51/111/81 50/112/82
s 10
f 12/29/83 48/86/84 52/113/85 45/114/86
f 45/114/86 52/113/85 51/111/87 36/79/88
f 52/113/85 48/86/84 53/115/89 54/116/90
f 51/111/87 52/113/85 54/116/90 55/117/91
s off
f 48/59/92 47/60/93 46/87/94 56/88/95
f 50/89/96 51/90/97 57/91/98 49/92/99
f 53/69/100 48/70/101 56/71/102 58/72/103
s 11
f 54/93/104 53/94/105 58/99/106 59/100/107
s off
f 51/95/108 55/96/109 60/97/110 57/98/111
s 11
f 55/101/112 54/93/104 59/100/107 60/102/113
s 12
f 59/118/114 58/119/115 56/120/116 61/121/117
f 60/122/118 59/118/114 61/121/117 57/123/119
s off
f 56/120/120 46/124/121 20/35/122 62/125/123
f 49/126/124 57/123/125 63/127/126 44/82/127
f 61/121/128 56/120/129 62/125/130 64/128/131
f 57/123/132 61/121/133 64/128/134 63/127/135
s 13
f 21/135/136 38/136/137 39/137/138
f 21/135/136 64/138/139 62/110/140
f 21/135/136 63/109/141 64/138/139
f 21/135/136 44/108/142 63/109/141
f 21/135/136 43/107/143 44/108/142
f 21/135/136 42/106/144 43/107/143
f 21/135/136 41/105/145 42/106/144
f 21/135/136 40/104/146 41/105/145
f 21/135/136 39/137/138 40/104/146
f 21/135/136 20/103/147 19/134/148
f 21/135/136 62/110/140 20/103/147
f 21/135/136 19/134/148 18/133/149
f 21/135/136 18/133/149 17/132/150
f 21/135/136 17/132/150 16/131/151
f 21/135/136 16/131/151 15/130/152
f 21/135/136 15/130/152 14/129/153
