# This file uses centimeters as units for non-parametric coordinates.

mtllib Hotel_2_Trim.mtl
g default
v -950.426331 899.980347 513.735901
v -950.426331 899.980347 -151.727570
v -922.986389 899.980347 -289.677643
v -844.843933 899.980347 -406.625854
v -727.895569 899.960754 -484.768219
v -589.945557 899.980347 -512.208313
v -433.340637 900.000122 -512.379822
v -90.000000 899.980347 513.735901
v 770.425964 899.980347 513.735901
v 770.425964 899.980347 -151.727570
v 742.986023 899.980347 -289.677643
v 664.843567 899.980347 -406.625854
v 547.895142 899.980347 -484.768219
v 409.945557 899.980347 -512.208313
v 253.340530 900.000122 -512.379822
v -232.603882 900.019470 -512.957275
v 52.603874 900.019470 -512.957275
v -90.000000 900.019470 -512.957275
v -727.895569 900.000000 -484.768219
v -232.603882 934.186279 -514.627136
v -433.345490 900.000000 -572.500427
v -232.608429 900.000000 -572.500427
v -232.608429 934.147217 -572.616272
v -433.345490 934.147217 -572.500427
v -950.426331 934.147217 513.735901
v -950.426331 934.147217 -151.727570
v -922.986389 934.147217 -289.677643
v -844.843933 934.147217 -406.625854
v -727.895569 934.147217 -484.768219
v -589.945557 934.147217 -512.208313
v -433.335815 934.186768 -512.551331
v -90.000000 934.147217 513.735901
v -90.000000 934.186279 -514.627197
v 52.603874 934.186279 -514.627136
v 253.345367 900.000000 -572.500427
v 52.608410 900.000000 -572.500427
v 52.608410 934.147217 -572.616272
v 253.345367 934.147217 -572.500427
v 770.425964 934.147217 513.735901
v 770.425964 934.147217 -151.727570
v 742.986023 934.147217 -289.677643
v 664.843567 934.147217 -406.625854
v 547.895142 934.147217 -484.768219
v 409.945557 934.147217 -512.208313
v 253.335709 934.186768 -512.551331
vt 0.501226 0.005210
vt 0.994970 0.367791
vt 0.994970 0.005210
vt 0.414543 0.565017
vt 0.501226 0.565017
vt 0.587913 0.565017
vt 0.698251 0.564388
vt 0.788113 0.564201
vt 0.867274 0.549250
vt 0.934384 0.506674
vt 0.979224 0.442954
vt 0.214339 0.564201
vt 0.304205 0.564388
vt 0.135179 0.549250
vt 0.068069 0.506674
vt 0.023228 0.442954
vt 0.007482 0.367791
vt 0.007482 0.005210
vt 0.050097 0.776795
vt 0.050097 0.757735
vt 0.515115 0.757735
vt 0.515115 0.776795
vt 0.012035 0.695545
vt 0.012035 0.713965
vt 0.661146 0.713965
vt 0.661146 0.695545
vt 0.223133 0.798989
vt 0.223133 0.779928
vt 0.127522 0.779939
vt 0.127522 0.798989
vt 0.909781 0.713965
vt 0.909781 0.695545
vt 0.795707 0.695545
vt 0.795707 0.713965
vt 0.038809 0.732429
vt 0.733750 0.732429
vt 0.046467 0.779928
vt 0.046467 0.798989
vt 0.803077 0.781657
vt 0.803077 0.800706
vt 0.884874 0.800706
vt 0.884874 0.781657
vt 0.331676 0.799011
vt 0.331673 0.779939
vt 0.618853 0.782423
vt 0.618853 0.801483
vt 0.700494 0.801483
vt 0.700494 0.782423
vt 0.980134 0.776795
vt 0.980134 0.757735
vt 0.433849 0.799779
vt 0.508405 0.799779
vt 0.508405 0.780719
vt 0.433849 0.780719
vt 0.571610 0.799779
vt 0.571610 0.780719
vt 0.733750 0.750849
vt 0.038809 0.750849
vt 0.877811 0.750849
vt 0.877811 0.732429
vt 0.613842 0.799779
vt 0.613842 0.780719
vt 0.884562 0.781685
vt 0.802974 0.781685
vt 0.802974 0.800734
vt 0.884562 0.800734
vt 0.349212 0.780730
vt 0.349209 0.799801
vt 0.304804 0.564388
vt 0.979224 0.442954
vt 0.795949 0.782423
vt 0.795949 0.801483
vt 0.414540 0.591256
vt 0.304202 0.591256
vt 0.698251 0.591256
vt 0.587913 0.591256
vt 0.698251 0.591256
vt 0.587913 0.591256
vt 0.304798 0.590173
vt 0.413990 0.590235
vt 0.007482 0.005210
vt 0.007482 0.367791
vt 0.023228 0.442954
vt 0.068069 0.506674
vt 0.135179 0.549250
vt 0.214339 0.564201
vt 0.499777 0.005210
vt 0.994970 0.005210
vt 0.994970 0.367791
vt 0.499777 0.565017
vt 0.413993 0.565017
vt 0.587913 0.565017
vt 0.698251 0.564388
vt 0.788113 0.564201
vt 0.867274 0.549250
vt 0.934384 0.506674
vt 0.032783 0.536901
vt 0.095009 0.536885
vt 0.095130 0.564232
vt 0.034528 0.564263
vt 0.032359 0.564263
vt 0.095009 0.564232
vt 0.095009 0.536885
vt 0.032180 0.536885
vt 0.032783 0.536901
vt 0.034528 0.564263
vt 0.095130 0.564232
vt 0.095009 0.536885
vt 0.032359 0.564263
vt 0.032180 0.536885
vt 0.095009 0.536885
vt 0.095009 0.564232
vn 0.000000 -1.000000 -0.000007
vn 0.000000 -1.000000 -0.000000
vn 0.000000 -1.000000 0.000000
vn 0.000060 -1.000000 -0.000047
vn 0.000000 -1.000000 -0.000038
vn -0.000060 -1.000000 -0.000047
vn -0.000112 -1.000000 -0.000057
vn -0.000049 -1.000000 -0.000024
vn 0.000000 -1.000000 -0.000000
vn 0.000000 -1.000000 0.000000
vn 0.000000 -1.000000 -0.000000
vn 0.000128 -1.000000 -0.000062
vn 0.000112 -1.000000 -0.000057
vn -0.000009 -1.000000 0.000025
vn -0.000059 -1.000000 0.000048
vn 0.000000 -1.000000 0.000000
vn 0.000000 -1.000000 0.000000
vn 0.000000 -1.000000 0.000000
vn 0.000000 0.000000 1.000000
vn 0.000000 0.000000 1.000000
vn 0.000000 0.000000 1.000000
vn 0.000000 0.000000 1.000000
vn -1.000000 0.000000 0.000000
vn -1.000000 0.000000 0.000000
vn -0.999417 0.000000 -0.034134
vn -0.999417 0.000000 -0.034134
vn -0.093581 -0.001329 -0.995611
vn -0.093589 -0.001328 -0.995610
vn -0.382684 0.000000 -0.923879
vn -0.382684 0.000000 -0.923880
vn -0.707133 0.000000 -0.707081
vn -0.707126 0.000000 -0.707087
vn -0.923880 0.000000 -0.382684
vn -0.923880 0.000000 -0.382684
vn -0.000288 -0.001696 -0.999999
vn -0.000288 -0.001696 -0.999999
vn -0.000288 -0.001696 -0.999999
vn -0.000288 -0.001696 -0.999999
vn -0.001642 -0.002509 -0.999996
vn -0.001642 -0.002509 -0.999996
vn 1.000000 -0.000002 -0.000077
vn 1.000000 -0.000002 -0.000077
vn 1.000000 -0.000002 -0.000077
vn 1.000000 -0.000002 -0.000077
vn -1.000000 0.000072 0.000121
vn -1.000000 0.000072 0.000121
vn -1.000000 0.000072 0.000121
vn -1.000000 0.000072 0.000121
vn 0.000000 -0.048816 -0.998808
vn 0.000000 -0.048816 -0.998808
vn 0.000000 -0.048816 -0.998808
vn 0.000000 -0.048816 -0.998808
vn 0.000000 0.000000 1.000000
vn 0.000000 0.000000 1.000000
vn 0.000000 0.000000 1.000000
vn 0.000000 0.000000 1.000000
vn 1.000000 0.000000 0.000000
vn 0.999417 0.000000 -0.034134
vn 0.999417 0.000000 -0.034134
vn 1.000000 0.000000 0.000000
vn 0.093595 -0.001328 -0.995609
vn 0.382684 0.000000 -0.923879
vn 0.382684 0.000000 -0.923879
vn 0.093607 -0.001328 -0.995608
vn 0.707106 0.000000 -0.707107
vn 0.707106 0.000000 -0.707107
vn 0.923880 0.000000 -0.382684
vn 0.923880 0.000000 -0.382684
vn 0.000288 -0.001696 -0.999999
vn 0.000288 -0.001696 -0.999999
vn 0.000288 -0.001696 -0.999999
vn 0.000288 -0.001696 -0.999999
vn 0.001642 -0.002509 -0.999996
vn 0.001642 -0.002509 -0.999996
vn -1.000000 -0.000002 -0.000077
vn -1.000000 -0.000002 -0.000077
vn -1.000000 -0.000002 -0.000077
vn -1.000000 -0.000002 -0.000077
vn 1.000000 0.000070 0.000121
vn 1.000000 0.000070 0.000121
vn 1.000000 0.000070 0.000121
vn 1.000000 0.000070 0.000121
vn 0.000000 -0.048816 -0.998808
vn 0.000000 -0.048816 -0.998808
vn 0.000000 -0.048816 -0.998808
vn 0.000000 -0.048816 -0.998808
vn 0.000000 1.000000 0.000009
vn 0.000000 1.000000 0.000000
vn 0.000000 1.000000 0.000000
vn -0.000000 1.000000 0.000038
vn 0.000002 1.000000 0.000038
vn -0.000002 1.000000 0.000038
vn 0.000135 1.000000 0.000084
vn 0.000098 1.000000 0.000047
vn 0.000000 1.000000 0.000000
vn 0.000000 1.000000 0.000000
vn 0.000000 1.000000 0.000000
vn -0.000135 1.000000 0.000084
vn -0.000098 1.000000 0.000048
vn 0.000000 1.000000 0.000000
vn 0.000000 1.000000 0.000000
vn 0.000000 1.000000 0.000000
vn 0.000000 1.000000 0.000000
vn 0.000000 1.000000 0.000000
vn -0.000002 1.000000 -0.000665
vn -0.000002 1.000000 -0.000665
vn -0.000002 1.000000 -0.000665
vn -0.000002 1.000000 -0.000665
vn 0.000002 1.000000 -0.000668
vn 0.000002 1.000000 -0.000668
vn 0.000002 1.000000 -0.000668
vn 0.000002 1.000000 -0.000668
vn -0.000048 -1.000000 0.000163
vn -0.000048 -1.000000 0.000163
vn -0.000048 -1.000000 0.000163
vn -0.000048 -1.000000 0.000163
vn 0.000048 -1.000000 0.000163
vn 0.000048 -1.000000 0.000163
vn 0.000048 -1.000000 0.000163
vn 0.000048 -1.000000 0.000163
s 1
g Trim1
usemtl initialShadingGroup
f 8/1/1 10/2/2 9/3/3
f 8/1/1 16/4/4 18/5/5
f 8/1/1 18/5/5 17/6/6
f 8/1/1 17/6/6 15/7/7
f 8/1/1 15/7/7 14/8/8
f 8/1/1 14/8/8 13/9/9
f 8/1/1 13/9/9 12/10/10
f 8/1/1 12/10/10 11/11/11
f 8/1/1 11/11/11 10/2/2
f 8/1/1 6/12/12 7/13/13
f 8/1/1 7/13/13 16/4/4
f 8/1/1 5/14/14 6/12/12
f 8/1/1 4/15/15 5/14/14
f 8/1/1 3/16/16 4/15/15
f 8/1/1 2/17/17 3/16/16
f 8/1/1 1/18/18 2/17/17
s off
f 25/19/19 1/20/20 8/21/21 32/22/22
s 4
f 1/23/23 25/24/24 26/25/25 2/26/26
f 30/27/27 6/28/28 19/29/29 29/30/30
f 29/30/30 19/29/29 4/37/31 28/38/32
f 28/31/32 4/32/31 3/33/33 27/34/34
f 27/34/34 3/33/33 2/26/26 26/25/25
s off
f 21/39/35 24/40/36 23/41/37 22/42/38
s 4
f 6/28/28 30/27/27 31/43/39 7/44/40
s off
f 16/97/41 22/98/42 23/99/43 20/100/44
f 31/101/45 24/102/46 21/103/47 7/104/48
f 16/45/49 20/46/50 33/47/51 18/48/52
f 39/49/53 32/22/54 8/21/55 9/50/56
s 6
f 9/35/57 10/36/58 40/57/59 39/58/60
f 44/51/61 43/52/62 13/53/63 14/54/64
f 43/52/62 42/55/65 12/56/66 13/53/63
f 42/55/65 41/61/67 11/62/68 12/56/66
f 41/59/67 40/57/59 10/36/58 11/60/68
s off
f 35/63/69 36/64/70 37/65/71 38/66/72
s 6
f 14/54/64 15/67/73 45/68/74 44/51/61
s off
f 17/105/75 34/106/76 37/107/77 36/108/78
f 45/109/79 15/110/80 35/111/81 38/112/82
f 17/71/83 18/48/84 33/47/85 34/72/86
s 8
f 32/87/87 39/88/88 40/89/89
f 32/87/87 33/90/90 20/91/91
f 32/87/87 34/92/92 33/90/90
f 32/87/87 45/93/93 34/92/92
f 32/87/87 44/94/94 45/93/93
f 32/87/87 43/95/95 44/94/94
f 32/87/87 42/96/96 43/95/95
f 32/87/87 41/70/97 42/96/96
f 32/87/87 40/89/89 41/70/97
f 32/87/87 31/69/98 30/86/99
f 32/87/87 20/91/91 31/69/98
f 32/87/87 30/86/99 29/85/100
f 32/87/87 29/85/100 28/84/101
f 32/87/87 28/84/101 27/83/102
f 32/87/87 27/83/102 26/82/103
f 32/87/87 26/82/103 25/81/104
s off
f 23/80/105 24/79/106 31/69/107 20/91/108
f 37/78/109 34/92/110 45/93/111 38/77/112
f 15/7/113 17/6/114 36/76/115 35/75/116
f 7/13/117 21/74/118 22/73/119 16/4/120
