# This file uses centimeters as units for non-parametric coordinates.

mtllib Building_Square_Basic.mtl
g default
v -2158.098877 -0.500000 500.000000
v -1158.098877 -0.500000 500.000000
v -2158.098877 3677.502686 500.000000
v -1158.098877 3677.502686 500.000000
v -2158.098877 3677.502686 -500.000000
v -1158.098877 3677.502686 -500.000000
v -2158.098877 -0.500000 -500.000000
v -1158.098877 -0.500000 -500.000000
v -2158.098877 3494.317139 500.000000
v -2158.098877 3494.317139 -500.000000
v -1158.098877 3494.317139 -500.000000
v -1158.098877 3494.317139 500.000000
vt 0.212868 0.991977
vt 0.095504 0.991977
vt 0.095504 0.542906
vt 0.212868 0.542906
vt 0.447597 0.991977
vt 0.330233 0.991977
vt 0.330233 0.542906
vt 0.447597 0.542907
vt 0.730535 0.576855
vt 0.730535 0.498077
vt 0.809313 0.498077
vt 0.809313 0.576855
vt 0.564961 0.542907
vt 0.564961 0.991977
vt 0.330233 0.563154
vt 0.447597 0.563154
vt 0.564961 0.563154
vt 0.095504 0.563154
vt 0.212868 0.563154
vn 0.000000 0.000000 1.000000
vn 0.000000 0.000000 1.000000
vn 0.000000 0.000000 1.000000
vn 0.000000 0.000000 1.000000
vn 0.000000 1.000000 0.000000
vn 0.000000 1.000000 0.000000
vn 0.000000 1.000000 0.000000
vn 0.000000 1.000000 0.000000
vn 0.000000 0.000000 -1.000000
vn 0.000000 0.000000 -1.000000
vn 0.000000 0.000000 -1.000000
vn 0.000000 0.000000 -1.000000
vn 1.000000 0.000000 0.000000
vn 1.000000 0.000000 0.000000
vn 1.000000 0.000000 0.000000
vn 1.000000 0.000000 0.000000
vn -1.000000 0.000000 0.000000
vn -1.000000 0.000000 0.000000
vn -1.000000 0.000000 0.000000
vn -1.000000 0.000000 0.000000
vn -1.000000 0.000000 0.000000
vn -1.000000 0.000000 0.000000
vn 0.000000 0.000000 -1.000000
vn 0.000000 0.000000 -1.000000
vn 1.000000 0.000000 0.000000
vn 1.000000 0.000000 0.000000
vn 0.000000 0.000000 1.000000
vn 0.000000 0.000000 1.000000
s 1
g Building_Basic
usemtl initialShadingGroup
f 1/6/1 2/1/2 12/19/3 9/15/4
s off
f 3/9/5 4/10/6 6/11/7 5/12/8
s 2
f 10/16/9 11/17/10 8/14/11 7/5/12
s 3
f 2/1/13 8/2/14 11/18/15 12/19/16
s 4
f 7/5/17 1/6/18 9/15/19 10/16/20
f 10/16/20 9/15/19 3/7/21 5/8/22
s 2
f 5/8/23 6/13/24 11/17/10 10/16/9
s 3
f 12/19/16 11/18/15 6/3/25 4/4/26
s 1
f 9/15/4 12/19/3 4/4/27 3/7/28
