# This file uses centimeters as units for non-parametric coordinates.

mtllib Twisted_Building.mtl
g default
v 825.070557 -0.500000 485.535919
v 1824.663696 -0.500000 514.057251
v 939.189514 5498.608398 -583.137451
v 755.990356 5498.608398 399.938416
v 1922.265137 5498.608398 -399.938721
v 1739.065918 5498.608398 583.137085
v 853.591919 -0.500000 -514.057251
v 1853.185059 -0.500000 -485.535919
v 662.589355 2749.054199 -205.659378
v 1544.787231 2749.054199 -676.538452
v 2015.666382 2749.054199 205.659363
v 1133.468750 2749.054199 676.538269
v 839.313049 4123.831055 -500.184906
v 1839.313110 4123.831055 -499.814331
v 1838.942627 4123.831055 500.184967
v 838.942078 4123.831055 499.814056
v 669.251587 1374.277100 226.419388
v 1112.708374 1374.277100 -669.876221
v 2009.004150 1374.277100 -226.419479
v 1565.547241 1374.277100 669.876221
vt 0.819968 0.048291
vt 0.988939 0.048291
vt 0.988939 0.970114
vt 0.819968 0.970114
vt 0.819968 0.048291
vt 0.988939 0.048291
vt 0.988939 0.970114
vt 0.819968 0.970114
vt 0.552863 0.963924
vt 0.552863 0.736076
vt 0.780710 0.736076
vt 0.780710 0.963924
vt 0.819968 0.048291
vt 0.988939 0.048291
vt 0.988939 0.970114
vt 0.819968 0.970114
vt 0.819968 0.048291
vt 0.988939 0.048291
vt 0.988939 0.970114
vt 0.819968 0.970114
vt 0.988939 0.509202
vt 0.819968 0.509202
vt 0.819968 0.509202
vt 0.819968 0.509203
vt 0.988939 0.509203
vt 0.988939 0.509202
vt 0.988939 0.509202
vt 0.819968 0.509202
vt 0.988939 0.739658
vt 0.819968 0.739658
vt 0.819968 0.739658
vt 0.819968 0.278747
vt 0.988939 0.278747
vt 0.988939 0.739658
vt 0.988939 0.739658
vt 0.819968 0.739658
vt 0.988939 0.278747
vt 0.819968 0.278747
vt 0.819968 0.278747
vt 0.819968 0.739658
vt 0.988939 0.739658
vt 0.988939 0.278747
vt 0.988939 0.278747
vt 0.819968 0.278747
vn -0.241575 0.000000 0.970382
vn -0.241575 0.000000 0.970382
vn -0.451839 0.000000 0.892100
vn -0.506677 0.000000 0.862136
vn 0.000000 1.000000 0.000000
vn 0.000000 1.000000 0.000000
vn 0.000000 1.000000 0.000000
vn 0.000000 1.000000 0.000000
vn 0.451839 -0.000000 -0.892100
vn 0.506677 -0.000000 -0.862136
vn 0.241575 0.000000 -0.970382
vn 0.241575 0.000000 -0.970382
vn 0.970382 -0.000000 0.241575
vn 0.970382 -0.000000 0.241575
vn 0.892100 -0.000000 0.451839
vn 0.862136 -0.000000 0.506677
vn -0.970382 0.000000 -0.241575
vn -0.970382 0.000000 -0.241575
vn -0.892100 -0.000000 -0.451839
vn -0.862136 -0.000000 -0.506678
vn -0.464175 0.000000 -0.885744
vn -0.524819 0.000000 -0.851214
vn -0.084522 -0.000000 -0.996422
vn -0.058751 -0.000000 -0.998273
vn 0.996422 0.000000 -0.084522
vn 0.998273 0.000000 -0.058751
vn 0.885744 -0.000000 -0.464175
vn 0.851214 -0.000000 -0.524819
vn 0.464175 0.000000 0.885744
vn 0.524819 0.000000 0.851214
vn 0.084522 0.000000 0.996422
vn 0.058751 0.000000 0.998273
vn -0.885744 -0.000000 0.464175
vn -0.851214 -0.000000 0.524819
vn -0.996422 -0.000000 0.084522
vn -0.998273 0.000000 0.058751
vn 0.092174 -0.000000 -0.995743
vn 0.092174 -0.000000 -0.995743
vn 0.995743 0.000000 0.092174
vn 0.995743 0.000000 0.092174
vn -0.092174 -0.000000 0.995743
vn -0.092174 -0.000000 0.995743
vn -0.995743 0.000000 -0.092174
vn -0.995743 0.000000 -0.092174
s 1
g Twisted_Building
usemtl initialShadingGroup
f 1/13/1 2/14/2 20/43/3 17/38/4
s off
f 3/9/5 4/10/6 6/11/7 5/12/8
s 2
f 18/40/9 19/41/10 8/19/11 7/20/12
s 3
f 2/1/13 8/2/14 19/42/15 20/44/16
s 4
f 7/5/17 1/6/18 17/37/19 18/39/20
f 10/23/21 9/21/22 13/29/23 14/31/24
s 2
f 14/32/25 15/33/26 11/25/27 10/24/28
s 3
f 12/28/29 11/26/30 15/34/31 16/36/32
s 1
f 9/22/33 12/27/34 16/35/35 13/30/36
s 4
f 14/31/24 13/29/23 3/7/37 5/8/38
s 2
f 5/17/39 6/18/40 15/33/26 14/32/25
s 3
f 16/36/32 15/34/31 6/3/41 4/4/42
s 1
f 13/30/36 16/35/35 4/15/43 3/16/44
s 4
f 18/39/20 17/37/19 9/21/22 10/23/21
s 2
f 10/24/28 11/25/27 19/41/10 18/40/9
s 3
f 20/44/16 19/42/15 11/26/30 12/28/29
s 1
f 17/38/4 20/43/3 12/27/34 9/22/33
