# This file uses centimeters as units for non-parametric coordinates.

mtllib SquareBuilding_Single_Level_Combined.mtl
g default
v -450.000000 257.278717 -499.619934
v 450.000000 257.278717 -499.619934
v -450.000000 107.278694 -499.619934
v 450.000000 107.278694 -499.619934
v 433.603790 257.278717 -499.619934
v 433.603790 107.278694 -499.619934
v -433.603912 257.278717 -499.619934
v -433.603912 107.278694 -499.619934
v 450.000000 123.581429 -499.619934
v 433.603790 123.581429 -503.787994
v -433.603912 123.581429 -503.787994
v -450.000000 123.581429 -499.619934
v 450.000000 240.975952 -499.619965
v 433.603790 240.975952 -503.787994
v -433.603912 240.975952 -503.787994
v -450.000000 240.975952 -499.619965
v -7.593896 107.278694 -499.619934
v -7.593896 123.581429 -503.787994
v -7.593896 240.975952 -503.787994
v -7.593896 257.278717 -499.619934
v 7.593913 107.278694 -499.619934
v 7.593913 123.581429 -503.787994
v 7.593913 240.975952 -503.787994
v 7.593913 257.278717 -499.619934
v -291.600494 107.278694 -499.619934
v -291.600494 123.581429 -503.787994
v -291.600494 240.975952 -503.787994
v -291.600494 257.278717 -499.619934
v -280.596100 107.278694 -499.619934
v -280.596100 123.581429 -503.787994
v -280.596100 240.975952 -503.787994
v -280.596100 257.278717 -499.619934
v 280.596130 107.278694 -499.619934
v 280.596130 123.581429 -503.787994
v 280.596130 240.975952 -503.787994
v 280.596130 257.278717 -499.619934
v 291.600494 107.278694 -499.619934
v 291.600494 123.581429 -503.787994
v 291.600494 240.975952 -503.787994
v 291.600494 257.278717 -499.619934
v -450.000000 257.278687 -509.682922
v -433.603912 257.278687 -509.682922
v -433.603912 240.975952 -509.682892
v -450.000000 240.975952 -509.682892
v 433.603790 257.278687 -509.682922
v 450.000000 257.278687 -509.682922
v 450.000000 240.975952 -509.682892
v 433.603790 240.975952 -509.682892
v 291.600494 257.278687 -509.682922
v 291.600494 240.975952 -509.682892
v 450.000000 123.581429 -509.682892
v 433.603790 123.581429 -509.682892
v 450.000000 107.278694 -509.682892
v 433.603790 107.278694 -509.682892
v 291.600494 123.581429 -509.682892
v 291.600494 107.278694 -509.682892
v -433.603912 123.581429 -509.682892
v -450.000000 123.581429 -509.682892
v -433.603912 107.278694 -509.682892
v -450.000000 107.278694 -509.682892
v -7.593896 123.581429 -509.682892
v -280.596100 123.581429 -509.682892
v -7.593896 107.278694 -509.682892
v -280.596100 107.278694 -509.682892
v -280.596100 257.278687 -509.682922
v -7.593896 257.278687 -509.682922
v -7.593896 240.975952 -509.682892
v -280.596100 240.975952 -509.682892
v 7.593913 123.581429 -509.682892
v 7.593913 107.278694 -509.682892
v 7.593913 240.975952 -509.682892
v 7.593913 257.278687 -509.682922
v -291.600494 123.581429 -509.682892
v -291.600494 107.278694 -509.682892
v -291.600494 257.278687 -509.682922
v -291.600494 240.975952 -509.682892
v 280.596130 123.581429 -509.682892
v 280.596130 107.278694 -509.682892
v 280.596130 257.278687 -509.682922
v 280.596130 240.975952 -509.682892
vt 0.347170 0.794269
vt 0.347018 0.782793
vt 0.354377 0.782695
vt 0.354528 0.794172
vt 0.338989 0.175805
vt 0.338837 0.164329
vt 0.346195 0.164231
vt 0.346347 0.175708
vt 0.389971 0.792176
vt 0.346277 0.660885
vt 0.346262 0.673229
vt 0.389971 0.880077
vt 0.441846 0.880077
vt 0.346277 0.794994
vt 0.028946 0.160104
vt 0.441846 0.792176
vt 0.340303 0.275198
vt 0.032729 0.965520
vt 0.347999 0.965520
vt 0.347662 0.275101
vt 0.342036 0.175765
vt 0.347999 0.814036
vt 0.032729 0.814036
vt 0.343351 0.275158
vt 0.347662 0.275101
vt 0.344761 0.520588
vt 0.192693 0.160104
vt 0.346347 0.175708
vt 0.338522 0.165279
vt 0.030268 0.965520
vt 0.345538 0.965520
vt 0.338674 0.176756
vt 0.346032 0.176659
vt 0.345538 0.814036
vt 0.030268 0.814036
vt 0.345881 0.165182
vt 0.343351 0.275158
vt 0.192693 0.025974
vt 0.028946 0.025974
vt 0.342036 0.175765
vt 0.214963 0.781714
vt 0.215007 0.760813
vt 0.194946 0.760741
vt 0.028531 0.756936
vt 0.028531 0.777127
vt 0.049242 0.777127
vt 0.049242 0.756936
vt 0.355948 0.794994
vt 0.028531 0.582068
vt 0.049242 0.582068
vt 0.198380 0.756936
vt 0.198380 0.777127
vt 0.219090 0.777127
vt 0.355948 0.660885
vt 0.219090 0.756936
vt 0.194903 0.781642
vt 0.050448 0.781123
vt 0.050492 0.760223
vt 0.030431 0.760151
vt 0.353898 0.520498
vt 0.030388 0.781052
vt 0.050894 0.565178
vt 0.051612 0.217174
vt 0.031551 0.217102
vt 0.030833 0.565107
vt 0.215409 0.565769
vt 0.216127 0.217764
vt 0.196066 0.217692
vt 0.198380 0.582068
vt 0.219090 0.582068
vt 0.198379 0.213629
vt 0.198379 0.232331
vt 0.355398 0.673139
vt 0.195349 0.565697
vt 0.050865 0.579207
vt 0.030804 0.579134
vt 0.219090 0.232331
vt 0.219090 0.213629
vt 0.049242 0.213629
vt 0.049242 0.232331
vt 0.389970 0.880077
vt 0.389970 0.792176
vt 0.441846 0.792176
vt 0.441846 0.880077
vt 0.389970 0.159212
vt 0.389970 0.071312
vt 0.441846 0.071312
vt 0.441846 0.159212
vt 0.389971 0.071312
vt 0.389971 0.159212
vt 0.441846 0.159212
vt 0.441846 0.071312
vt 0.411457 0.792176
vt 0.411457 0.159212
vt 0.441846 0.159212
vt 0.441846 0.792176
vt 0.411457 0.792176
vt 0.411457 0.159212
vt 0.441846 0.159212
vt 0.441846 0.792176
vt 0.411457 0.159212
vt 0.411457 0.792176
vt 0.441846 0.792176
vt 0.441846 0.159212
vt 0.411457 0.792176
vt 0.411457 0.159212
vt 0.441846 0.159212
vt 0.441846 0.792176
vt 0.411457 0.159212
vt 0.411457 0.792176
vt 0.441846 0.792176
vt 0.441846 0.159212
vt 0.411457 0.792176
vt 0.411457 0.159212
vt 0.441846 0.159212
vt 0.441846 0.792176
vt 0.411457 0.159212
vt 0.411457 0.792176
vt 0.441846 0.792176
vt 0.441846 0.159212
vt 0.346347 0.175708
vt 0.347662 0.275101
vt 0.339989 0.276149
vt 0.347347 0.276051
vt 0.346704 0.783743
vt 0.346856 0.795220
vt 0.354214 0.795122
vt 0.354062 0.783646
vt 0.348783 0.793625
vt 0.346255 0.602542
vt 0.350566 0.602485
vt 0.353093 0.793568
vt 0.342759 0.485565
vt 0.345287 0.676648
vt 0.352645 0.676550
vt 0.350118 0.485467
vt 0.345601 0.675697
vt 0.343074 0.484614
vt 0.350432 0.484517
vt 0.352959 0.675600
vt 0.346122 0.484574
vt 0.348649 0.675657
vt 0.352959 0.675600
vt 0.350432 0.484517
vt 0.342618 0.474934
vt 0.349977 0.474837
vt 0.342933 0.473983
vt 0.350291 0.473886
vt 0.345389 0.684350
vt 0.352747 0.684253
vt 0.345703 0.683400
vt 0.353062 0.683302
vt 0.348751 0.683359
vt 0.350066 0.782752
vt 0.354377 0.782695
vt 0.353062 0.683302
vt 0.348043 0.796364
vt 0.345515 0.605281
vt 0.349826 0.605224
vt 0.352354 0.796307
vt 0.340091 0.283851
vt 0.347449 0.283753
vt 0.340405 0.282900
vt 0.347764 0.282803
vt 0.345515 0.604638
vt 0.348043 0.795721
vt 0.352354 0.795664
vt 0.349826 0.604581
vt 0.028531 0.213629
vt 0.028531 0.232331
vt 0.198380 0.568517
vt 0.219090 0.568517
vt 0.028531 0.568517
vt 0.049242 0.568517
vt 0.215380 0.579797
vt 0.195319 0.579725
vt 0.029760 0.160104
vt 0.193508 0.160104
vt 0.193508 0.025974
vt 0.029760 0.025974
vn 0.000000 -0.000002 -1.000000
vn 0.000000 -0.000002 -1.000000
vn 0.000000 -0.000001 -1.000000
vn 0.000000 -0.000000 -1.000000
vn 0.000000 -0.000002 -1.000000
vn 0.000000 -0.000002 -1.000000
vn 0.000000 -0.000000 -1.000000
vn 0.000000 -0.000001 -1.000000
vn 0.000000 -0.000002 -1.000000
vn 0.000000 -0.000001 -1.000000
vn 0.000000 0.000000 -1.000000
vn 0.000000 0.000000 -1.000000
vn 0.000000 0.000000 -1.000000
vn 0.000000 0.000000 -1.000000
vn 0.000000 0.000000 -1.000000
vn 0.000000 0.000000 -1.000000
vn 0.000000 0.000000 -1.000000
vn 0.000000 0.000000 -1.000000
vn 0.000000 0.000000 -1.000000
vn 0.000000 0.000000 -1.000000
vn 0.000000 0.000000 -1.000000
vn 0.000000 0.000000 -1.000000
vn 0.000000 0.000000 -1.000000
vn 0.000000 0.000000 -1.000000
vn 0.000000 0.000000 -1.000000
vn 0.000000 0.000000 -1.000000
vn 0.000000 0.000000 -1.000000
vn 0.000000 0.000000 -1.000000
vn 0.000000 0.000000 -1.000000
vn 0.000000 0.000000 -1.000000
vn 0.000000 0.000000 -1.000000
vn 0.000000 0.000000 -1.000000
vn 0.000000 -0.000002 -1.000000
vn 0.000000 -0.000002 -1.000000
vn 0.000000 -0.000001 -1.000000
vn 0.000000 -0.000001 -1.000000
vn 0.000000 0.000000 -1.000000
vn 0.000000 0.000000 -1.000000
vn 0.000000 -0.000001 -1.000000
vn 0.000000 -0.000002 -1.000000
vn 0.000000 0.000000 -1.000000
vn 0.000000 0.000000 -1.000000
vn 0.000000 0.000000 -1.000000
vn 0.000000 0.000000 -1.000000
vn 0.000000 0.000000 -1.000000
vn 0.000000 0.000000 -1.000000
vn 0.000000 -0.000002 -1.000000
vn 0.000000 -0.000001 -1.000000
vn 0.000000 0.000000 -1.000000
vn 0.000000 0.000000 -1.000000
vn 0.000000 0.000000 -1.000000
vn 0.000000 0.000000 -1.000000
vn 0.000000 0.000000 -1.000000
vn 0.000000 0.000000 -1.000000
vn 0.000000 -0.000002 -1.000000
vn 0.000000 -0.000001 -1.000000
vn 0.000000 1.000000 -0.000003
vn 0.000000 1.000000 -0.000003
vn 0.000000 1.000000 -0.000003
vn 0.000000 1.000000 -0.000003
vn -1.000000 0.000000 0.000000
vn -1.000000 0.000000 0.000000
vn -1.000000 0.000000 0.000000
vn -1.000000 0.000000 0.000000
vn 0.000000 1.000000 -0.000003
vn 0.000000 1.000000 -0.000003
vn 0.000000 1.000000 -0.000003
vn 0.000000 1.000000 -0.000003
vn 1.000000 0.000000 0.000000
vn 1.000000 0.000000 0.000000
vn 1.000000 0.000000 0.000000
vn 1.000000 0.000000 0.000000
vn 0.000000 1.000000 -0.000003
vn 0.000000 1.000000 -0.000003
vn 0.000000 -1.000000 0.000000
vn 0.000000 -1.000000 0.000000
vn 0.000000 -1.000000 0.000000
vn 0.000000 -1.000000 0.000000
vn 1.000000 0.000000 0.000000
vn 1.000000 0.000000 0.000000
vn 1.000000 0.000000 0.000000
vn 1.000000 0.000000 0.000000
vn 0.000000 -1.000000 0.000000
vn 0.000000 -1.000000 0.000000
vn 0.000000 -1.000000 0.000000
vn 0.000000 -1.000000 0.000000
vn 0.000000 1.000000 0.000000
vn 0.000000 1.000000 0.000000
vn 0.000000 1.000000 0.000000
vn 0.000000 1.000000 0.000000
vn 0.000000 -1.000000 0.000000
vn 0.000000 -1.000000 0.000000
vn 0.000000 -1.000000 0.000000
vn 0.000000 -1.000000 0.000000
vn 0.000000 -1.000000 0.000000
vn 0.000000 -1.000000 0.000000
vn -1.000000 0.000000 0.000000
vn -1.000000 0.000000 0.000000
vn -1.000000 0.000000 0.000000
vn -1.000000 0.000000 0.000000
vn -1.000000 0.000000 0.000000
vn -1.000000 0.000000 0.000000
vn -1.000000 0.000000 0.000000
vn -1.000000 0.000000 0.000000
vn 1.000000 0.000000 0.000000
vn 1.000000 0.000000 0.000000
vn 1.000000 0.000000 0.000000
vn 1.000000 0.000000 0.000000
vn 0.000000 1.000000 0.000000
vn 0.000000 1.000000 0.000000
vn 0.000000 1.000000 0.000000
vn 0.000000 1.000000 0.000000
vn 0.000000 -1.000000 0.000000
vn 0.000000 -1.000000 0.000000
vn 0.000000 -1.000000 0.000000
vn 0.000000 -1.000000 0.000000
vn 0.000000 1.000000 -0.000003
vn 0.000000 1.000000 -0.000003
vn 0.000000 1.000000 -0.000003
vn 0.000000 1.000000 -0.000003
vn 0.000000 -1.000000 0.000000
vn 0.000000 -1.000000 0.000000
vn 0.000000 -1.000000 0.000000
vn 0.000000 -1.000000 0.000000
vn 0.000000 -1.000000 0.000000
vn 0.000000 -1.000000 0.000000
vn 1.000000 0.000000 0.000000
vn 1.000000 0.000000 0.000000
vn 1.000000 0.000000 0.000000
vn 1.000000 0.000000 0.000000
vn -1.000000 0.000000 0.000000
vn -1.000000 0.000000 0.000000
vn -1.000000 0.000000 0.000000
vn -1.000000 0.000000 0.000000
vn 0.000000 1.000000 -0.000003
vn 0.000000 1.000000 -0.000003
vn 0.000000 1.000000 0.000000
vn 0.000000 1.000000 0.000000
vn 0.000000 1.000000 0.000000
vn 0.000000 1.000000 0.000000
vn 0.000000 -1.000000 0.000000
vn 0.000000 -1.000000 0.000000
vn 0.000000 1.000000 -0.000003
vn 0.000000 1.000000 -0.000003
vn 0.000000 -1.000000 0.000000
vn 0.000000 -1.000000 0.000000
vn 0.000000 -1.000000 0.000000
vn 0.000000 -1.000000 0.000000
vn 1.000000 0.000000 0.000000
vn 1.000000 0.000000 0.000000
vn 1.000000 0.000000 0.000000
vn 1.000000 0.000000 0.000000
vn -1.000000 0.000000 0.000000
vn -1.000000 0.000000 0.000000
vn -1.000000 0.000000 0.000000
vn -1.000000 0.000000 0.000000
vn 0.000000 1.000000 0.000000
vn 0.000000 1.000000 0.000000
vn 0.000000 1.000000 0.000000
vn 0.000000 1.000000 0.000000
vn 0.000000 -1.000000 0.000000
vn 0.000000 -1.000000 0.000000
vn 0.000000 1.000000 -0.000003
vn 0.000000 1.000000 -0.000003
vn 0.000000 -1.000000 0.000000
vn 0.000000 -1.000000 0.000000
vn 0.000000 -1.000000 0.000000
vn 0.000000 -1.000000 0.000000
vn 1.000000 0.000000 0.000000
vn 1.000000 0.000000 0.000000
vn 1.000000 0.000000 0.000000
vn 1.000000 0.000000 0.000000
vn -1.000000 0.000000 0.000000
vn -1.000000 0.000000 0.000000
vn -1.000000 0.000000 0.000000
vn -1.000000 0.000000 0.000000
s 1
g WIndow
usemtl initialShadingGroup
f 41/41/1 42/42/2 43/43/3 44/56/4
f 45/44/5 46/45/6 47/46/7 48/47/8
f 49/49/9 45/44/5 48/47/8 50/50/10
f 52/51/11 51/52/12 53/53/13 54/55/14
f 55/69/15 52/51/11 54/55/14 56/70/16
f 58/57/17 57/58/18 59/59/19 60/61/20
f 48/47/8 47/46/7 51/52/12 52/51/11
s off
f 39/15/21 14/27/22 10/38/23 38/39/24
s 1
f 44/56/4 43/43/3 57/58/18 58/57/17
f 62/62/25 61/63/26 63/64/27 64/65/28
s off
f 31/18/29 19/19/30 18/22/31 30/23/32
s 1
f 65/66/33 66/67/34 67/68/35 68/74/36
f 61/71/26 69/72/37 70/77/38 63/78/27
f 67/79/35 71/80/39 69/72/37 61/71/26
f 66/169/34 72/170/40 71/80/39 67/79/35
f 57/58/18 73/75/41 74/76/42 59/59/19
s off
f 15/177/43 27/178/44 26/179/45 11/180/46
s 1
f 42/42/2 75/175/47 76/176/48 43/43/3
f 73/75/41 62/62/25 64/65/28 74/76/42
f 76/176/48 68/74/36 62/62/25 73/75/41
f 75/175/47 65/66/33 68/74/36 76/176/48
f 69/72/37 77/171/49 78/172/50 70/77/38
s off
f 23/30/51 35/31/52 34/34/53 22/35/54
s 1
f 72/170/40 79/173/55 80/174/56 71/80/39
f 77/171/49 55/69/15 56/70/16 78/172/50
f 80/174/56 50/50/10 55/69/15 77/171/49
f 79/173/55 49/49/9 50/50/10 80/174/56
s 5
f 1/1/57 7/2/58 42/3/59 41/4/60
s 6
f 16/9/61 1/12/62 41/13/63 44/16/64
s 5
f 5/5/65 2/6/66 46/7/67 45/8/68
s 8
f 2/81/69 13/82/70 47/83/71 46/84/72
s 5
f 40/17/73 5/5/65 45/8/68 49/20/74
s off
f 14/21/75 39/24/76 50/25/77 48/28/78
s 8
f 9/85/79 4/86/80 53/87/81 51/88/82
s 9
f 4/29/83 6/32/84 54/33/85 53/36/86
s off
f 38/37/87 10/40/88 52/121/89 55/122/90
s 9
f 6/32/84 37/123/91 56/124/92 54/33/85
f 8/125/93 3/126/94 60/127/95 59/128/96
s 6
f 3/89/97 12/90/98 58/91/99 60/92/100
s 8
f 13/82/70 9/85/79 51/88/82 47/83/71
s off
f 10/10/101 14/14/102 48/48/103 52/54/104
f 15/93/105 11/94/106 57/95/107 43/96/108
s 6
f 12/90/98 16/9/61 44/16/64 58/91/99
s off
f 30/129/109 18/130/110 61/131/111 62/132/112
s 9
f 17/133/113 29/134/114 64/135/115 63/136/116
s 5
f 32/137/117 20/138/118 66/139/119 65/140/120
s off
f 19/141/121 31/142/122 68/143/123 67/144/124
s 9
f 21/145/125 17/133/113 63/136/116 70/146/126
s off
f 23/97/127 22/98/128 69/99/129 71/100/130
f 18/101/131 19/102/132 67/103/133 61/104/134
s 5
f 20/138/118 24/147/135 72/148/136 66/139/119
s off
f 11/11/137 26/26/138 73/60/139 57/73/140
s 9
f 25/149/141 8/125/93 59/128/96 74/150/142
s 5
f 7/2/58 28/151/143 75/152/144 42/3/59
s off
f 27/153/145 15/154/146 43/155/147 76/156/148
s 9
f 29/134/114 25/149/141 74/150/142 64/135/115
s off
f 31/105/149 30/106/150 62/107/151 68/108/152
f 26/109/153 27/110/154 76/111/155 73/112/156
s 5
f 28/151/143 32/137/117 65/140/120 75/152/144
s off
f 22/157/157 34/158/158 77/159/159 69/160/160
s 9
f 33/161/161 21/145/125 70/146/126 78/162/162
s 5
f 24/147/135 36/163/163 79/164/164 72/148/136
s off
f 35/165/165 23/166/166 71/167/167 80/168/168
s 9
f 37/123/91 33/161/161 78/162/162 56/124/92
s off
f 39/113/169 38/114/170 55/115/171 50/116/172
f 34/117/173 35/118/174 80/119/175 77/120/176
s 5
f 36/163/163 40/17/73 49/20/74 79/164/164
g default
v -465.000000 46.844307 -496.193909
v 465.000000 46.844307 -496.193909
v -465.000000 146.844299 -496.193909
v 465.000000 146.844299 -496.193909
v -465.000000 146.844299 -646.193970
v 465.000000 146.844299 -646.193970
v -465.000000 46.844307 -646.193970
v 465.000000 46.844307 -646.193970
v 446.604248 146.844299 -646.193970
v 446.604248 46.844307 -646.193970
v 446.604248 46.844307 -496.193909
v 446.604248 146.844299 -496.193909
v -446.604279 146.844299 -646.193970
v -446.604279 46.844307 -646.193970
v -446.604279 46.844307 -496.193909
v -446.604279 146.844299 -496.193909
v 446.604248 146.844315 -630.769043
v -446.604279 146.844315 -630.769043
v -465.000000 146.844299 -630.769043
v -465.000000 46.844307 -630.769043
v -446.604279 46.844307 -630.769043
v 446.604248 46.844307 -630.769043
v 465.000000 46.844307 -630.769043
v 465.000000 146.844299 -630.769043
v -446.604279 61.403488 -496.193909
v 446.604248 61.403488 -496.193909
v 446.604248 61.403503 -630.769043
v -446.604279 61.403503 -630.769043
vt 0.496623 0.970419
vt 0.822600 0.982827
vt 0.496675 0.968460
vt 0.496623 0.874242
vt 0.644477 0.968460
vt 0.643400 0.874242
vt 0.643400 0.970419
vt 0.793447 0.987218
vt 0.793447 0.968826
vt 0.496623 0.874242
vt 0.496623 0.970419
vt 0.822600 0.964992
vt 0.643401 0.970419
vt 0.643401 0.874242
vt 0.660224 0.874242
vt 0.660224 0.970419
vt 0.683632 0.968826
vt 0.660224 0.874242
vt 0.660224 0.970419
vt 0.683632 0.987218
vt 0.965190 0.964992
vt 0.965190 0.982827
vt 0.644477 0.872477
vt 0.496675 0.872477
vt 0.644477 0.968460
vt 0.496675 0.968460
vt 0.496675 0.872477
vt 0.644477 0.872477
vt 0.822600 0.964992
vt 0.822600 0.982827
vt 0.965190 0.982827
vt 0.965190 0.964992
vt 0.822600 0.081217
vt 0.822600 0.099051
vt 0.965190 0.099051
vt 0.965190 0.081217
vt 0.965190 0.099051
vt 0.822600 0.099051
vt 0.822600 0.081217
vt 0.965190 0.081217
vt 0.822600 0.964992
vt 0.822600 0.099051
vt 0.965190 0.099051
vt 0.965190 0.964992
vt 0.981534 0.964992
vt 0.981534 0.099051
vt 0.981534 0.982827
vt 0.981534 0.982827
vt 0.981534 0.964992
vt 0.981534 0.099051
vt 0.981534 0.081217
vt 0.981534 0.081217
vt 0.793447 0.075842
vt 0.793447 0.057451
vt 0.683632 0.057451
vt 0.683632 0.075842
vt 0.793447 0.075842
vt 0.793447 0.968826
vt 0.681250 0.968826
vt 0.681250 0.075842
vn -0.000000 1.000000 0.000000
vn -0.000000 1.000000 0.000000
vn -0.000000 1.000000 -0.000001
vn -0.000000 1.000000 0.000000
vn 0.000000 0.000000 -1.000000
vn 0.000000 0.000000 -1.000000
vn 0.000000 0.000000 -1.000000
vn 0.000000 0.000000 -1.000000
vn 0.000000 -1.000000 0.000000
vn 0.000000 -1.000000 0.000000
vn 0.000000 -1.000000 0.000000
vn 0.000000 -1.000000 0.000000
vn 1.000000 0.000000 0.000000
vn 1.000000 0.000000 0.000000
vn 1.000000 0.000000 0.000000
vn 1.000000 0.000000 0.000000
vn -1.000000 0.000000 0.000000
vn -1.000000 0.000000 0.000000
vn -1.000000 0.000000 0.000000
vn -1.000000 0.000000 0.000000
vn 0.000000 0.000000 -1.000000
vn 0.000000 0.000000 -1.000000
vn 0.000000 0.000000 -1.000000
vn 0.000000 0.000000 -1.000000
vn 0.000000 -1.000000 0.000000
vn 0.000000 -1.000000 0.000000
vn 0.000000 -1.000000 0.000000
vn 0.000000 -1.000000 0.000000
vn 0.000000 1.000000 -0.000001
vn 0.000000 1.000000 0.000000
vn 0.000000 1.000000 0.000000
vn 0.000000 1.000000 0.000000
vn 0.000000 1.000000 0.000000
vn 0.000000 1.000000 0.000000
vn 0.000000 1.000000 0.000000
vn 0.000000 1.000000 0.000000
vn -0.000000 1.000000 -0.000001
vn 0.000000 1.000000 -0.000001
vn -0.000000 1.000000 0.000000
vn -1.000000 0.000000 0.000000
vn -1.000000 0.000000 0.000000
vn 0.000000 -1.000000 0.000000
vn 0.000000 -1.000000 0.000000
vn 0.000000 -1.000000 0.000000
vn 0.000000 -1.000000 0.000000
vn 1.000000 0.000000 0.000000
vn 1.000000 0.000000 0.000000
vn 0.000000 1.000000 0.000000
vn -1.000000 0.000000 0.000000
vn -1.000000 0.000000 0.000000
vn -1.000000 0.000000 0.000000
vn -1.000000 0.000000 0.000000
vn 0.000000 0.000000 1.000000
vn 0.000000 0.000000 1.000000
vn 0.000000 0.000000 1.000000
vn 0.000000 0.000000 1.000000
vn 1.000000 0.000000 0.000000
vn 1.000000 0.000000 0.000000
vn 1.000000 0.000000 0.000000
vn 1.000000 0.000000 0.000000
s 1
g Balcony
usemtl initialShadingGroup
f 83/182/177 96/192/178 98/201/179 99/202/180
s 2
f 85/188/181 93/189/182 94/197/183 87/200/184
s 3
f 95/209/185 81/210/186 100/211/187 101/212/188
s 4
f 84/181/189 82/184/190 103/186/191 104/187/192
s 5
f 81/190/193 83/191/194 99/193/195 100/194/196
s 2
f 89/233/197 86/234/198 88/235/199 90/236/200
s 3
f 82/213/201 91/214/202 102/215/203 103/216/204
s 1
f 97/217/205 92/218/206 84/219/207 104/220/208
s 2
f 93/189/182 89/233/197 90/236/200 94/197/183
s 3
f 91/214/202 95/209/185 101/212/188 102/215/203
s off
f 105/221/209 106/222/210 107/223/211 108/224/212
s 1
f 93/225/213 98/201/179 97/217/205 89/226/214
f 99/202/180 98/201/179 93/225/213 85/227/215
s 5
f 87/195/216 100/194/196 99/193/195 85/196/217
s 3
f 87/228/218 94/229/219 101/212/188 100/211/187
f 102/215/203 101/212/188 94/229/219 90/230/220
f 103/216/204 102/215/203 90/230/220 88/231/221
s 4
f 104/187/192 103/186/191 88/198/222 86/199/223
s 1
f 89/226/214 97/217/205 104/220/208 86/232/224
s off
f 92/183/225 97/185/226 107/203/227 106/204/228
f 97/237/229 98/238/230 108/239/231 107/240/232
f 98/205/233 96/206/234 105/207/235 108/208/236
g default
v -500.000000 0.000000 500.000000
v 500.000000 0.000000 500.000000
v -500.000000 300.000000 500.000000
v 500.000000 300.000000 500.000000
v -500.000000 300.000000 -500.000000
v 500.000000 300.000000 -500.000000
v -500.000000 0.000000 -500.000000
v 500.000000 0.000000 -500.000000
vt 0.154228 0.510839
vt 0.516213 0.510839
vt 0.631278 0.510839
vt 0.154228 0.620288
vt 0.631278 0.142359
vt 0.154228 0.029929
vt 0.516213 0.142359
vt 0.154228 0.142359
vt 0.516213 0.979674
vt 0.040703 0.142359
vt 0.516213 0.619538
vt 0.040703 0.510839
vt 0.154228 0.980443
vt 0.516213 0.029160
vn 0.000000 0.000000 1.000000
vn 0.000000 0.000000 1.000000
vn 0.000000 0.000000 1.000000
vn 0.000000 0.000000 1.000000
vn 0.000000 1.000000 0.000000
vn 0.000000 1.000000 0.000000
vn 0.000000 1.000000 0.000000
vn 0.000000 1.000000 0.000000
vn 0.000000 0.000000 -1.000000
vn 0.000000 0.000000 -1.000000
vn 0.000000 0.000000 -1.000000
vn 0.000000 0.000000 -1.000000
vn 0.000000 -1.000000 0.000000
vn 0.000000 -1.000000 0.000000
vn 0.000000 -1.000000 0.000000
vn 0.000000 -1.000000 0.000000
vn 1.000000 0.000000 0.000000
vn 1.000000 0.000000 0.000000
vn 1.000000 0.000000 0.000000
vn 1.000000 0.000000 0.000000
vn -1.000000 0.000000 0.000000
vn -1.000000 0.000000 0.000000
vn -1.000000 0.000000 0.000000
vn -1.000000 0.000000 0.000000
s off
g Base_SingleStory
usemtl initialShadingGroup
f 109/241/237 110/242/238 112/251/239 111/244/240
f 111/244/241 112/251/242 114/249/243 113/253/244
f 113/246/245 114/254/246 116/247/247 115/248/248
f 115/248/249 116/247/250 110/242/251 109/241/252
f 110/242/253 116/247/254 114/245/255 112/243/256
f 115/248/257 109/241/258 111/252/259 113/250/260
